<svg width="176" height="334" viewBox="0 0 176 334" fill="none" xmlns="http://www.w3.org/2000/svg">
<path d="M118.5 327.5C101.333 326 64.0001 319.7 52.0001 306.5C37.0001 290 46.0001 266.5 49.0001 259C51.4001 253 74.3333 186.833 85.4999 154.5C92.8333 133.167 107.8 82.5 109 50.5C110.5 10.5 81.4999 6.50001 50.4999 6.00001M50.4999 6.00001C19.4999 5.50001 3.99993 22.5 5.99993 42.5C7.99993 62.5 13 85.5 73.5 170C134 254.5 143 265 153.5 299.5C156.667 306 157.8 320.7 137 327.5C116.2 334.3 113.755 316 110.5 306.5C104.333 288.5 97.3001 240.9 118.5 194.5L169.5 42.5C173.167 33 168.9 12.4 122.5 6.00001C107.333 6.00001 71.6999 6.00001 50.4999 6.00001Z" stroke="#FFA947" stroke-width="10"/>
</svg>
